<svg width="30" height="21" viewBox="0 0 45 32" fill="none" xmlns="http://www.w3.org/2000/svg">
<path d="M20.6696 6.31314C20.2194 5.21774 19.4638 4.67005 18.3978 4.69529C17.4848 4.71724 15.6618 4.96804 15.0738 5.83294C15.0056 5.93282 14.9557 6.06015 14.9432 6.18911C13.903 7.3103 13.4322 11.5514 13.3486 12.4333C13.267 13.2916 13.2603 13.8871 14.1075 13.9074C15.6334 13.9441 17.5544 12.9206 18.9392 12.2818C19.927 11.8263 20.8424 11.4241 21.1659 10.1684C21.4746 8.97095 21.1222 7.41457 20.6696 6.31314Z" fill="#FBB03B"/>
<path d="M27.8835 5.73967C27.4909 4.65086 27.176 3.82108 26.0442 3.77004C24.9915 3.7223 22.9242 3.9945 22.3064 5.09483C22.2901 5.07453 22.2738 5.05368 22.2507 5.04435L22.0966 4.98123C21.9843 4.93458 21.8283 5.01086 21.7741 5.13105C21.4827 5.77643 21.6541 6.39438 21.7515 7.09739C21.9267 8.36126 22.1576 9.61581 22.3688 10.8725C22.4149 11.1464 22.7029 11.3012 22.9232 11.2326C24.5485 10.7249 26.4834 10.1772 27.9243 9.13396C29.0989 8.28278 28.2973 6.88555 27.8835 5.73967Z" fill="#FBB03B"/>
<path d="M34.7633 6.80108C34.5204 6.0432 34.1359 5.41976 33.7371 4.75517C33.3377 4.08893 33.0439 3.39855 32.4262 2.99464C32.3638 2.95403 32.3043 2.95018 32.2486 2.96336C31.4791 2.47712 30.2465 2.79981 29.4631 3.06269C28.7196 3.31239 28.4225 3.68722 28.6937 4.55431C28.9241 5.29134 29.2539 6.03441 29.5519 6.73851C29.7579 7.22475 29.875 7.6572 30.3655 7.78452C30.8388 7.9069 31.4523 7.71428 31.9279 7.66434C32.7377 7.57927 33.5479 7.49421 34.3577 7.40969C34.6063 7.38335 34.8655 7.11939 34.7633 6.80108Z" fill="#FBB03B"/>
<path d="M38.0379 15.8572C37.6501 15.7771 37.2416 15.8572 36.9503 16.1701C36.8653 16.2612 36.7947 16.3764 36.7328 16.4999C36.6488 16.5707 36.5687 16.6503 36.4981 16.7474C36.0781 17.3258 36.0834 18.1479 36.4232 18.7768C37.3189 20.4347 39.4688 19.4486 39.5216 17.6425C39.5499 16.6755 38.8678 15.7041 38.0379 15.8572Z" fill="#333333"/>
<path d="M43.0117 11.0821C42.8159 9.9862 42.7866 8.76074 42.4947 7.69334C41.804 5.16888 40.3578 4.74301 38.2179 5.37468C36.8557 5.77694 35.3019 5.85323 34.2291 4.35008C33.9911 4.01641 33.9195 3.10816 33.6973 2.69053C33.2495 1.84813 32.5923 1.18737 31.7543 0.897061C30.5466 0.478331 29.1887 0.987616 28.0088 1.27244C25.7941 1.80806 23.5837 2.36838 21.3709 2.91608C18.9469 3.51646 16.3583 3.71402 14.733 5.82304C14.6783 5.84829 14.6226 5.87463 14.5741 5.89658C14.4114 5.97012 14.3634 6.15946 14.3965 6.31257C14.3115 6.45032 14.228 6.58971 14.1498 6.74173C13.4557 8.09561 12.8687 9.67778 12.6186 11.227C12.4736 12.1259 12.6575 13.0721 12.1899 13.8195C11.6269 14.7185 10.2594 14.8606 9.35985 15.2102C6.90705 16.1629 3.45441 17.2303 1.86417 19.7904C0.843693 21.4335 0.801937 23.93 2.06962 25.3025C1.85074 25.4095 1.64722 25.5352 1.47394 25.6911C1.13842 25.9918 1.07745 26.146 1.00545 26.5993C0.864332 27.4906 0.851856 28.688 0.825936 29.6012C0.816336 29.9393 1.0285 30.2647 1.31218 30.3564C2.26066 30.662 3.40066 30.1089 4.33378 29.8559C5.63314 29.5041 6.96369 29.1962 8.20545 28.6282C8.34273 28.5656 8.43345 28.435 8.48193 28.2902C8.49153 28.3099 8.50018 28.3313 8.51026 28.3511C9.53218 30.3322 11.7978 31.6334 13.7533 30.7499C15.4592 29.9793 16.4571 27.9362 16.6496 25.8233C16.8887 26.0966 17.2727 26.101 17.6024 25.938C20.1032 25.6252 22.5671 24.6012 24.9728 23.8224C25.7019 23.5864 31.4024 21.9801 33.6627 21.0488C33.6925 21.1421 33.7199 21.2392 33.7525 21.3292C34.6501 23.807 37.0779 24.0238 39.1179 23.3532C41.0802 22.7084 42.0263 20.9176 42.1554 18.9936C42.1789 18.7823 42.188 18.5666 42.1914 18.3504C42.6637 18.4234 43.1711 18.2039 43.2623 17.6188C43.2896 17.6243 43.317 17.6304 43.3443 17.6364C43.6717 17.7055 43.9827 17.5991 44.1666 17.2649C44.5357 16.5931 44.4858 16.2809 44.3701 15.512C44.1613 14.1269 43.28 12.5815 43.0117 11.0821ZM33.2783 4.7057C33.74 5.63591 34.1173 6.32903 34.6309 6.76093C33.5975 7.23783 32.2501 7.2296 31.2474 7.40577C30.8245 7.47985 30.4131 7.66809 30.0143 7.42992C29.5842 7.17308 29.5631 6.74118 29.4114 6.23464C29.1483 5.35821 28.8915 4.48453 28.5704 3.6339C29.0672 3.292 29.8443 3.35457 30.3877 3.2942C30.8159 3.24646 31.3175 3.11309 31.7471 3.2223C31.8287 3.24261 31.9218 3.18773 31.9472 3.10047C32.4555 3.44566 32.9077 3.95879 33.2783 4.7057ZM14.5223 7.53967C14.7584 6.99911 15.0431 6.56062 15.3627 6.19677C16.3616 5.71987 17.5002 5.18205 18.501 5.12937C20.1978 5.04046 20.2247 5.95476 20.6312 7.40742C20.9149 8.42104 21.2178 9.26289 20.8045 10.2474C20.1608 11.7819 17.6082 12.3065 16.2066 12.8279C15.3575 13.1434 14.4728 13.3909 13.6271 13.7361C13.6338 11.6578 13.7187 9.37814 14.5223 7.53967ZM6.44674 16.9839C8.58898 16.0531 10.9832 15.6459 13.2128 15.062C13.3938 15.0148 13.5426 14.8392 13.5987 14.635C15.6483 14.4056 17.7867 13.3789 19.6179 12.5584C21.0483 11.9174 21.6949 11.5025 21.4607 9.6926C21.3119 8.54233 20.7642 5.28906 19.7591 4.62722C19.5781 4.50813 19.3554 4.44776 19.1091 4.42417C19.7667 4.30288 20.4368 4.20684 21.0887 4.07403C22.8061 3.7239 24.5216 3.36115 26.2376 3.00498C27.8317 2.67406 29.5237 2.24271 30.9498 2.64223C30.8197 2.67077 30.6939 2.70314 30.5845 2.7218C29.804 2.85516 28.9218 2.86614 28.3333 3.54335C28.2963 3.58561 28.3016 3.63061 28.3203 3.66738C28.3203 3.67671 28.3146 3.68385 28.316 3.69372C28.5215 4.87144 28.7317 6.76149 29.2947 7.78389C29.7234 8.56099 30.4971 8.33269 31.1826 8.22732C32.1435 8.07914 34.5474 8.16804 35.6235 7.22851C35.9888 7.29766 36.4184 7.29711 36.9421 7.22247C37.3631 7.1621 37.7634 7.0035 38.1762 6.90417C39.8816 6.49312 40.9045 7.07868 41.9048 8.88641C42.1194 9.27441 42.5475 11.3862 42.8696 13.2082C42.669 13.2729 42.4746 13.3915 42.2855 13.4831C42.1477 13.5501 42.0143 13.6253 41.8832 13.7043C40.5407 11.626 38.4407 10.3835 35.9615 11.2781C33.1319 12.2994 31.8666 15.6657 32.6922 18.6923C27.7237 19.9677 22.6995 21.0395 17.8707 22.9032C17.5559 21.2469 16.9866 19.6137 15.7775 18.6231C14.1824 17.3159 11.9466 17.3938 10.2003 18.2302C8.50546 19.0419 7.16818 20.6345 6.6109 22.6518C6.50482 23.036 6.41794 23.4789 6.36274 23.9426C5.58178 24.1764 4.80417 24.425 4.02609 24.6692C3.64353 24.7894 3.19041 24.8931 2.74881 25.0347C2.21601 21.4456 3.09346 18.4409 6.44674 16.9839ZM11.3701 20.1592C10.5987 20.5253 9.95169 21.1833 9.47409 21.9982C9.46737 22.001 9.46066 21.9988 9.45394 22.0026C9.2269 22.136 9.02866 22.3017 8.85345 22.4899C9.2941 21.6025 9.95505 20.8721 10.8248 20.4051C11.001 20.3107 11.1839 20.23 11.3701 20.1592ZM4.77778 28.1123C4.16002 28.232 3.5437 28.356 2.92834 28.4932C2.6653 28.5519 2.40178 28.6107 2.13874 28.6699C1.53778 29.008 1.3669 28.7599 1.62706 27.9252C1.61986 27.0488 1.38225 26.7453 2.20161 26.5335C2.73969 26.3946 3.2989 26.32 3.84082 26.1899C4.6717 25.9912 5.5021 25.7838 6.33058 25.5665C6.40594 26.3935 6.64161 27.1657 7.12881 27.6969C6.34113 27.7951 5.56114 27.9609 4.77778 28.1123ZM11.961 29.4706C11.9336 29.4618 11.9077 29.4492 11.8808 29.4399C13.3607 29.4102 14.3 28.227 14.6903 26.821C14.8314 26.6108 14.9595 26.3825 15.0603 26.1235C15.7986 24.228 15.033 22.7874 13.8042 22.4921C13.3842 22.1881 12.8461 22.0679 12.1827 22.2342C10.7735 22.5871 10.4111 23.6298 10.5911 24.6763C10.5008 25.0133 10.4634 25.3771 10.5123 25.764C10.8455 28.4027 13.1365 28.6447 14.4435 27.1437C14.049 27.9955 13.3741 28.7144 12.5682 28.9888C11.6442 29.3032 10.8363 29.0025 10.2123 28.3818C9.79809 27.9406 9.47217 27.3918 9.27441 26.719C8.84193 25.2509 9.23218 24.1089 9.56146 22.7846C10.7168 20.5489 13.2997 19.3086 15.2197 21.5811C17.5098 24.2922 15.7794 30.701 11.961 29.4706ZM25.8546 22.5558C23.3322 23.3554 20.6528 24.0052 18.2024 25.134C18.2163 24.9941 18.1991 24.8465 18.1343 24.6939C18.0699 24.1264 17.9903 23.5332 17.8794 22.9421C22.7394 21.2162 27.7539 20.016 32.7435 18.8635C32.8343 19.1653 32.9384 19.4644 33.0723 19.7558C33.1314 19.8843 33.2571 20.0033 33.3915 20.0549C33.3954 20.0692 33.3983 20.0835 33.4021 20.0972C30.9099 20.4857 28.1883 21.816 25.8546 22.5558ZM38.0931 21.6481C37.2599 21.8199 35.9811 21.8665 35.4186 20.9111C34.9803 20.1674 34.8608 18.5798 34.8248 17.7308C34.7231 15.3573 35.7618 14.0001 37.6309 13.6725C38.8751 14.4792 40.197 15.2272 40.6933 16.8884C41.3653 19.1401 40.0808 21.2376 38.0931 21.6481ZM43.2723 15.9917C43.1586 15.984 43.0587 16.0109 42.9699 16.0586C42.7386 15.3216 42.4314 14.6213 42.0551 13.9869C42.1751 13.9436 42.2941 13.8986 42.4131 13.8448C42.585 13.7674 42.7717 13.7032 42.9402 13.6093C43.1667 14.9237 43.3218 15.995 43.2723 15.9917Z" fill="#333333"/>
<path d="M22.4797 11.7194C24.4357 11.2925 26.4085 10.4556 28.1427 9.32834C29.4387 8.48594 28.8411 7.51237 28.3673 6.12996C28.0001 5.05816 27.764 3.52319 26.5789 3.3827C25.8253 3.29324 24.9411 3.5841 24.2096 3.74435C23.2376 3.95728 22.1427 4.14223 21.2974 4.75249C21.0723 4.91493 21.1376 5.36658 21.4318 5.35945C21.4467 5.3589 21.4616 5.35561 21.4765 5.35506C21.3963 7.41633 21.7635 9.5473 22.1921 11.5241C22.2243 11.6717 22.3544 11.7469 22.4797 11.7194ZM21.9795 7.7489C21.8811 6.94327 21.836 6.13325 21.7625 5.32652C23.1406 5.17121 24.4712 4.32827 25.8646 4.33211C26.6494 4.3343 27.1601 4.57797 27.6046 5.54934C27.7731 5.91758 27.8763 6.3835 28.0025 6.7693C28.4326 8.08312 28.255 8.58252 27.1822 9.20266C26.3528 9.68176 23.0437 11.7386 22.4561 10.5598C22.0976 9.84201 22.0789 8.56441 21.9795 7.7489Z" fill="#333333"/>
<path d="M38.0735 9.56038C38.517 9.58837 38.8559 9.86825 39.2015 10.1586C39.2773 10.2222 39.3469 10.1059 39.3181 10.0279C39.1108 9.47696 38.5775 9.2525 38.0792 9.24537C37.9016 9.24372 37.8973 9.5494 38.0735 9.56038Z" fill="#333333"/>
<path d="M39.8307 9.49727C39.9022 9.50989 39.9459 9.38477 39.8926 9.33318C39.6435 9.09171 39.3373 8.97756 39.0392 8.83378C38.9101 8.77176 38.8146 9.02146 38.9413 9.09226C39.2326 9.2558 39.5067 9.44129 39.8307 9.49727Z" fill="#333333"/>
<path d="M24.9478 18.2878C25.1019 18.6638 25.4437 19.1313 25.7749 19.3097C25.9179 19.3865 26.0413 19.2373 25.9832 19.0765C25.844 18.689 25.4533 18.2774 25.1317 18.082C25.0107 18.008 24.8917 18.1506 24.9478 18.2878Z" fill="#333333"/>
<path d="M25.7346 17.8878C25.8944 18.1957 26.0394 18.5112 26.2453 18.7823C26.3562 18.9283 26.5357 18.7461 26.4699 18.5881C26.3403 18.2774 26.1493 18.0102 25.9736 17.7319C25.8728 17.5722 25.6419 17.71 25.7346 17.8878Z" fill="#333333"/>
<path d="M5.00477 21.9418C5.09789 22.0131 5.22893 21.8726 5.16413 21.7634C5.00477 21.4956 4.76861 21.2854 4.56461 21.0626C4.44941 20.9369 4.27517 21.1301 4.38749 21.2618C4.58381 21.4928 4.76957 21.7618 5.00477 21.9418Z" fill="#333333"/>
<path d="M5.68213 20.6718C5.76373 20.7288 5.83477 20.6059 5.78005 20.5291C5.67301 20.3781 5.53333 20.2591 5.40469 20.1323C5.31493 20.0439 5.18149 20.1894 5.27173 20.2816C5.40421 20.4182 5.52997 20.5647 5.68213 20.6718Z" fill="#333333"/>
</svg>
