<svg width="51" height="46" viewBox="0 0 51 46" fill="none" xmlns="http://www.w3.org/2000/svg">
<path d="M33.9458 45.1677C33.987 45.1633 34.0293 45.1534 34.0739 45.1282C37.1699 43.3748 39.6568 40.4919 42.2358 37.9181C44.8514 35.3075 48.244 32.7193 50.2456 29.4485C50.6814 29.651 50.9728 28.8783 50.5984 28.5765C45.0333 24.0972 38.715 20.8171 33.0357 16.5019C27.2248 12.0874 22.6403 6.67521 17.9023 0.908474C17.6397 0.589075 17.2965 0.796511 17.2245 1.11536C17.1789 1.09176 17.1251 1.08683 17.0704 1.11811C11.6603 4.22209 6.63377 7.92371 1.02257 10.6227C0.838727 10.711 0.751849 11.0178 0.851209 11.2132C8.40401 26.1245 19.4694 38.766 33.5219 45.4141C33.7346 45.5156 33.8949 45.3641 33.9458 45.1677ZM9.70722 24.2097C8.15394 22.1155 6.68752 19.9368 5.31904 17.6807C4.48288 16.3022 3.68368 14.8956 2.9152 13.4665C1.93744 11.6489 1.76128 11.5908 3.32464 10.4498C5.66368 8.74361 8.50769 7.66961 10.9514 6.11543C13.132 4.72862 15.3472 3.30725 17.2739 1.4847C17.2811 1.49897 17.2826 1.51379 17.2912 1.52806C21.0818 7.73987 26.5763 12.9144 32.0335 17.1177C37.6701 21.4592 43.7666 25.8923 49.9072 29.2641C47.1631 30.9868 44.8062 34.0727 42.5008 36.4336C39.7298 39.2714 37.0696 42.3957 33.7605 44.412C33.6827 44.4592 33.6386 44.5267 33.6102 44.5991C24.291 40.1446 16.2251 32.997 9.70722 24.2097Z" fill="#333333"/>
<path d="M18.7394 6.44468C25.0178 15.5536 34.7575 22.5441 43.7291 27.6128C43.8621 27.688 43.936 27.4377 43.8045 27.3636C39.1451 24.7267 34.6778 21.6754 30.5075 18.1208C26.3061 14.5394 22.7368 10.2972 18.8258 6.35687C18.771 6.30254 18.6923 6.37608 18.7394 6.44468Z" fill="#333333"/>
<path d="M44.5514 31.7183C44.6733 31.7683 44.7659 31.5636 44.6531 31.484C43.3758 30.584 43.0264 29.0078 44.0714 27.6589C44.1376 27.5733 44.0469 27.4443 43.9653 27.5222C42.7624 28.6731 43.023 31.091 44.5514 31.7183Z" fill="#333333"/>
<path d="M44.5374 31.7853C44.5528 31.771 44.535 31.7397 44.5178 31.7518C41.0675 34.1138 38.1453 37.5465 35.1482 40.5808C35.4088 39.6369 33.0774 39.7126 32.6968 39.7444C32.2038 39.7851 30.0962 40.0336 30.4466 41.0561C30.4739 41.1362 30.5901 41.1252 30.6098 41.044C30.9093 39.7856 35.1486 39.728 35.0478 40.5907C35.0426 40.6379 35.0853 40.6576 35.1165 40.6428C35.0608 40.7723 35.2 40.9364 35.3133 40.8206C38.3411 37.7221 41.38 34.7071 44.5374 31.7853Z" fill="#333333"/>
<path d="M16.2659 29.7948C12.1826 25.5224 9.1317 20.6288 5.87826 15.5668C5.83938 15.5064 5.75298 15.575 5.7837 15.6403C10.7623 26.2611 20.6699 36.1877 30.34 40.8689C30.3448 40.8711 30.3482 40.8629 30.3439 40.8596C25.3231 37.5882 20.5547 34.2823 16.2659 29.7948Z" fill="#333333"/>
<path d="M6.0242 11.5353C9.1898 10.0985 12.3228 8.16625 15.0036 5.74277C15.0496 6.28827 15.6477 6.78109 16.1023 6.96384C16.9015 7.28489 18.1816 7.3661 18.6631 6.38266C18.7413 6.22241 18.5757 6.03363 18.4442 6.16425C17.946 6.65926 17.466 6.86341 16.7973 6.76518C16.2247 6.68121 15.1845 6.2998 15.2599 5.51612C15.268 5.50844 15.2772 5.50129 15.2853 5.49361C15.3026 5.47715 15.2892 5.4541 15.2714 5.44861C15.2858 5.36409 15.3088 5.27684 15.3511 5.18354C15.3828 5.11275 15.3112 5.02 15.2517 5.08421C15.088 5.26202 15.0146 5.44477 15.0021 5.62367C12.0256 7.77221 9.09523 9.72043 5.87587 11.3822C5.76547 11.2779 5.64691 11.1813 5.51155 11.1028C5.47123 11.0798 5.41221 11.1369 5.45349 11.1786C6.48693 12.2235 6.78835 14.0526 5.73715 15.2408C5.60371 15.3917 5.79859 15.6447 5.93155 15.4916C6.82099 14.4692 6.91172 12.5692 6.0242 11.5353Z" fill="#333333"/>
<path d="M23.9244 30.112C25.554 29.5604 25.9562 27.8806 25.0884 26.2968C24.8873 25.9296 24.6314 25.6135 24.377 25.2958C25.3956 24.2876 26.3714 23.2273 27.2935 22.0941C27.318 22.1764 27.3468 22.2499 27.3684 22.3378C27.3468 22.6572 26.6474 23.7509 26.4871 24.3348C26.4636 24.4199 26.501 24.5104 26.5749 24.5412C28.1249 25.1915 28.6471 22.3465 28.2482 21.1337C28.2276 21.0706 28.2017 21.0135 28.1781 20.9532C28.3927 20.6634 28.6101 20.378 28.8161 20.0762C28.9279 19.9126 28.8237 19.7085 28.686 19.6344C28.5487 19.5603 28.4114 19.4857 28.2737 19.4116C28.1916 19.3671 28.1095 19.4901 28.1493 19.574C28.1407 19.5559 27.9535 19.7513 27.6741 20.0581C27.485 19.8193 27.2685 19.6168 27.0328 19.4484C27.3122 19.0922 27.5728 18.7217 27.786 18.3189C27.8128 18.2679 27.7769 18.196 27.7221 18.2097C27.1385 18.3573 26.5826 18.6268 26.0498 18.9687C25.2871 18.7415 24.4466 18.7717 23.6897 19.0335C21.9434 19.6377 21.3717 21.1776 21.7903 22.8953C20.9954 23.6724 20.142 24.4912 19.3889 25.3841C19.2842 24.7547 19.3567 24.1455 19.6812 23.6483C19.9178 23.2855 19.5233 22.8569 19.1988 23.0232C18.1653 23.5511 18.2901 25.0104 18.6928 26.2765C18.3338 26.7868 18.0199 27.3219 17.7813 27.8894C17.6911 28.1045 17.9402 28.3229 18.1092 28.2175C18.4701 27.9931 18.8138 27.7198 19.1503 27.4262C19.2473 27.6265 19.3437 27.8054 19.4335 27.953C19.4892 28.0441 19.5477 28.1336 19.6082 28.2219C19.3653 28.4343 19.1234 28.6467 18.8839 28.8613C18.3751 29.3162 19.0404 30.1707 19.5487 29.7196C19.7997 29.4968 20.0503 29.2745 20.3009 29.0523C21.293 30.0247 22.614 30.5554 23.9244 30.112ZM26.8212 21.0141C25.8669 22.0952 24.7221 23.4178 24.5585 23.6027C24.2988 23.8958 24.03 24.1795 23.7569 24.4589C23.4492 24.0165 23.2058 23.6368 23.0695 23.2477C24.0516 22.2867 25.2228 21.3982 26.2284 20.3725C26.4525 20.5317 26.6498 20.7463 26.8212 21.0141ZM24.5834 20.0603C24.6074 20.0559 24.6281 20.0575 24.6521 20.0542C24.1442 20.5097 23.6575 21.0014 23.1876 21.4849C23.1996 21.4547 23.2049 21.429 23.2173 21.3982C23.3181 20.4686 23.7737 20.0224 24.5834 20.0603ZM19.8713 26.7506C20.693 25.9192 21.4673 24.9742 22.2477 24.1104C22.4148 24.4018 22.6903 24.7876 22.9874 25.2178C22.1436 26.0229 21.2633 26.7879 20.3863 27.5469C20.1933 27.2972 20.0191 27.0289 19.8713 26.7506ZM23.5581 26.0866C24.1937 27.1233 24.6425 28.2132 23.9023 28.791C23.0829 29.4309 22.0149 29.0978 21.1183 28.3251C21.9429 27.5897 22.7589 26.8478 23.5581 26.0866Z" fill="#333333"/>
</svg>
