<svg width="70" height="54" viewBox="0 0 70 54" fill="none" xmlns="http://www.w3.org/2000/svg">
<path d="M64.5519 23.623C64.1511 22.4909 63.0111 21.3812 62.3419 20.502C61.1995 19.0005 60.0461 17.51 58.8826 16.0299C56.4389 12.9221 53.9482 9.8631 51.4277 6.83649C50.8762 6.17465 50.1298 7.0143 50.4029 7.7409C51.0327 9.41912 48.4042 14.1541 47.3448 15.3982C45.9893 16.9903 42.9053 15.5206 41.0669 15.1957C38.6765 14.7726 35.0347 13.4089 32.8488 14.867C31.3373 15.8751 29.9064 18.005 28.6872 19.3995C27.2376 21.0574 25.8183 22.7499 24.4325 24.4775C23.8531 25.1997 23.2224 26.2474 22.5399 26.8549C21.0543 28.1775 19.2888 27.8005 17.6271 27.7088C15.024 27.565 12.421 27.4174 9.81842 27.267C9.69746 27.2599 9.6029 27.2967 9.52034 27.3488C9.18194 27.267 8.75234 27.6029 8.89586 28.0584C10.0392 31.6892 11.6765 34.7542 14.0002 37.5553C17.0295 41.2064 19.3637 45.0211 21.6922 49.2847C21.84 49.5552 22.1976 49.7896 22.4847 49.6535C26.2104 47.8863 29.497 47.5346 33.4599 47.4051C36.0082 47.3222 37.2226 45.88 38.892 43.8132C41.2118 40.9413 43.8139 37.6596 46.6176 35.4068C48.0019 34.2943 49.9138 34.1879 51.5482 33.8789C53.8416 33.4454 56.053 33.0661 58.3666 33.34C60.5621 33.5996 61.2999 31.3874 62.4893 29.4375C63.4963 27.784 65.3127 25.771 64.5519 23.623Z" fill="#FBB03B"/>
<path d="M69.3773 24.0329C65.6108 20.665 63.0197 16.5046 60.0322 12.3107C57.0984 8.19254 53.9348 4.29665 50.593 0.608197C50.3247 0.311848 49.8884 0.376604 49.6944 0.740455C47.5493 4.76093 45.7138 9.01738 44.0842 13.3402C40.286 12.7777 36.7695 10.8805 32.9804 10.222C31.7852 10.014 31.1112 10.0595 30.5616 10.5167C30.4469 10.5288 30.3404 10.593 30.2876 10.734C30.2804 10.7527 30.2736 10.7713 30.2664 10.79C30.2621 10.8021 30.2612 10.8141 30.2573 10.8262C30.1138 10.9991 29.9732 11.2043 29.8282 11.4496C29.774 11.4661 29.7192 11.482 29.665 11.4985C29.3688 11.8382 29.0751 12.1801 28.7837 12.5253C28.3954 12.9852 28.0124 13.4511 27.6332 13.9214C26.6847 15.0964 25.7588 16.2949 24.8559 17.5155C23.3554 19.5433 21.685 21.6517 20.6055 24.0192C17.1048 22.6171 13.0176 22.7521 9.36244 22.7773C7.38196 22.791 5.40196 22.8437 3.42196 22.8701C2.12404 22.8876 1.381 22.6785 0.437804 23.589C0.434924 23.5917 0.435883 23.5945 0.433483 23.5972C0.352363 23.5637 0.252043 23.6669 0.306283 23.7668C5.66788 33.6747 12.4109 42.8182 18.445 52.2125C18.4464 52.2147 18.4464 52.2169 18.4479 52.2185C18.5146 52.3217 18.5818 52.4243 18.6485 52.5275C18.8228 52.7958 19.1088 52.798 19.308 52.6663C19.6652 53.2332 19.4904 52.927 20.0986 53.1646C20.8618 53.4632 22.2384 53.0099 23.0756 52.9264C24.2338 52.8106 25.3916 52.685 26.5488 52.556C30.3908 52.1279 34.2735 51.7723 38.0876 51.0885C38.2306 51.0627 38.3218 50.9672 38.3746 50.846C38.9228 50.4931 39.3034 49.8455 39.7157 49.3121C40.7506 47.9741 41.7543 46.6065 42.7988 45.2784C44.7936 42.7414 46.9013 40.3267 48.9106 37.8055C49.0191 37.6694 49.0589 37.5223 49.0584 37.3824C51.4056 37.8082 53.8301 37.7545 56.1989 37.9295C57.77 38.0459 60.3596 38.9036 61.8816 38.295C62.03 38.4657 62.2949 38.4937 62.4653 38.2253C65.1188 34.0446 67.3109 29.3244 69.4628 24.7886C69.5664 24.5686 69.5684 24.2036 69.3773 24.0329ZM32.7346 11.2416C34.0973 11.3157 35.5973 11.9211 36.8948 12.3568C39.2573 13.1498 41.5436 14.0394 43.982 14.4192C44.0621 14.5415 44.1951 14.6151 44.3674 14.5657C44.4629 14.5383 44.5589 14.5103 44.6544 14.4828C44.7725 14.4483 44.8517 14.3791 44.9079 14.2968C45.5088 15.1282 46.1112 15.958 46.7175 16.7839C45.6994 16.6182 44.7581 16.1287 43.7376 15.9783C42.6452 15.8175 41.5772 15.7697 40.4952 15.6276C42.6629 16.2093 44.8239 16.8575 46.9162 17.0528C50.9055 22.4799 54.9864 27.8169 58.9474 33.2719C57.1877 33.7422 54.9864 33.4437 53.2287 33.4667C51.1685 33.4942 49.106 33.807 47.0708 34.1758C44.8589 30.8276 42.5487 27.5529 40.308 24.2371C38.1605 21.0596 36.0711 17.8008 33.8938 14.6343C34.6032 14.5959 35.3189 14.6239 36.0389 14.7023C35.3045 14.5811 34.5706 14.5185 33.8492 14.569C33.1023 13.484 32.3434 12.4117 31.5692 11.3558C31.92 11.2647 32.2988 11.218 32.7346 11.2416ZM24.0682 51.9018C22.838 52.089 20.5714 52.9572 19.4568 52.5083C19.5452 52.3672 19.5663 52.1839 19.442 51.9973C13.2245 42.6601 7.4362 32.587 0.616844 23.809C3.88708 23.3107 7.54516 23.7212 10.8461 23.764C14.1567 23.8068 17.328 24.4083 20.6045 24.7991C20.7048 24.8111 20.7807 24.7771 20.833 24.7184C21.41 25.6557 21.9764 26.5997 22.5341 27.5491C20.1927 27.6726 17.7039 27.098 15.3279 27.1572C13.1156 27.2127 10.92 27.3597 8.74564 27.8169C8.62324 27.6204 8.50228 27.4223 8.37988 27.2258C8.36164 27.1967 8.32036 27.2231 8.33716 27.2544C8.44276 27.4492 8.55268 27.6407 8.65876 27.8356C8.52868 27.8635 8.39812 27.8882 8.26756 27.9184C8.25412 27.9217 8.257 27.9475 8.27092 27.9459C8.41156 27.9277 8.55172 27.9135 8.69236 27.8959C12.6456 35.1246 17.0876 42.051 21.5468 48.8857C21.4493 48.9093 21.3509 48.9285 21.254 48.9526C21.2122 48.9631 21.2304 49.0338 21.2712 49.0251C21.3792 49.002 21.4882 48.9839 21.5967 48.962C21.864 49.3719 22.1314 49.7829 22.3988 50.1918C22.477 50.3114 22.6556 50.1945 22.5759 50.0733C22.3244 49.6897 22.0772 49.3022 21.8276 48.917C25.9676 48.0921 30.1776 47.6992 34.3589 47.2278C35.0928 48.2836 35.9568 49.4493 36.842 50.1292C34.0666 50.4064 31.296 50.8591 28.5327 51.2416C27.0437 51.4496 25.5557 51.6752 24.0682 51.9018ZM22.717 27.8575C24.9744 31.7161 27.1109 35.652 29.3535 39.5342C30.5924 41.6789 31.8922 43.7835 33.3351 45.7564C33.5933 46.1099 33.8919 46.5522 34.2178 47.0253C30.0682 47.5236 25.861 47.8644 21.7743 48.8346C17.3136 41.9522 13.1232 34.8689 8.78788 27.8855C11.1341 27.5941 13.4597 27.4025 15.8256 27.3751C18.1368 27.3488 20.4399 27.9546 22.7064 27.863C22.7112 27.8624 22.7127 27.858 22.717 27.8575ZM40.753 45.69C40.4573 46.0769 38.0765 48.7183 37.6268 50.0519C37.5658 50.0573 37.5053 50.0645 37.4444 50.07C36.889 49.5909 35.8618 48.3819 34.8826 47.1701C34.8989 47.1685 34.9152 47.1663 34.9316 47.1646C35.0568 47.1504 35.0573 46.9237 34.9316 46.9391C34.86 46.9479 34.7885 46.9561 34.717 46.9649C33.6212 45.6011 32.6256 44.2879 32.4797 44.0727C30.9322 41.7936 29.5416 39.3877 28.19 36.9532C25.8658 32.7659 23.7039 28.3624 20.9084 24.5505C20.9112 24.5367 20.916 24.5236 20.9175 24.5093C20.9415 24.489 20.965 24.4649 20.9852 24.4314C21.0528 24.3189 21.1205 24.2058 21.1882 24.0928C21.2132 24.0511 21.1796 23.994 21.1388 23.994C22.0191 23.9901 23.378 21.1913 23.8916 20.463C24.8573 19.0943 25.8509 17.752 26.8714 16.4371C27.7997 15.2413 28.752 14.0707 29.7188 12.9155C30.0504 12.5192 30.5352 12.1274 30.8132 11.6384C30.998 11.5462 31.188 11.4683 31.3858 11.4057C32.0525 12.4792 32.737 13.5394 33.4344 14.5904C29.8229 18.5807 26.3583 22.8338 23.1303 27.2302C23.0933 27.2802 23.1543 27.3526 23.1941 27.3032C26.5973 23.0605 30.0404 18.8853 33.5338 14.7408C35.4951 17.6894 37.5432 20.5733 39.518 23.4957C41.9271 27.0606 44.2791 30.6975 46.7261 34.2361C46.6983 34.2411 46.6704 34.2455 46.6431 34.251C46.6248 34.2543 46.6292 34.2894 46.6474 34.2877C46.6834 34.2844 46.7194 34.28 46.7554 34.2768C46.7741 34.3036 46.7933 34.33 46.812 34.3574C46.7818 34.3338 46.742 34.3256 46.7074 34.3629C42.8319 38.5409 38.9276 42.7062 35.0938 46.9342C35.0472 46.9852 35.1154 47.0598 35.1634 47.0137C39.2256 43.1162 43.141 38.8581 46.8293 34.5029C46.8581 34.4688 46.8548 34.4315 46.8413 34.3991C47.3943 35.1971 47.954 35.9879 48.5189 36.7732C48.3965 36.7727 48.2688 36.816 48.1503 36.9351C45.4853 39.6182 43.0868 42.636 40.753 45.69ZM61.3844 37.6985C61.4405 36.7529 49.9911 36.6421 48.8664 36.8029C48.8376 36.8067 48.8108 36.8177 48.7863 36.8319C48.2362 35.9621 47.6789 35.0983 47.113 34.2411C49.5711 33.9963 52.0167 33.5688 54.4911 33.7C55.9498 33.7774 57.6778 33.9167 59.0823 33.4569C60.001 34.7235 60.9135 35.9956 61.8159 37.2781C61.6008 37.238 61.3997 37.4384 61.3844 37.6985ZM67.0066 27.0277C65.2906 30.3792 63.4642 33.7302 62.0304 37.2573C61.105 35.972 60.1815 34.6829 59.2584 33.3915C59.3357 33.3334 59.2954 33.1775 59.1917 33.2104C59.1744 33.2159 59.1557 33.2181 59.1384 33.2236C55.2346 27.7626 51.3279 22.2834 47.2277 17.0188C47.2541 16.9612 47.2378 16.8865 47.1812 16.8536C48.7306 13.8018 50.1653 10.6456 51.6336 7.54112C51.6788 7.44563 51.5544 7.36221 51.506 7.45551C49.9325 10.4783 48.3898 13.619 47.1197 16.8245C47.1188 16.8267 47.1216 16.8273 47.1212 16.8295C47.1063 16.8284 47.0924 16.8256 47.078 16.8245C46.3815 15.9322 45.6773 15.0475 44.9679 14.1689C45.0197 13.9988 44.9871 13.8023 44.8868 13.6476C46.4223 9.60568 48.2444 5.819 50.2954 2.10256C54.9567 7.22611 59.0247 12.7898 63.0106 18.6125C63.9701 20.0141 64.9844 21.3362 66.1349 22.5386C66.5127 22.9332 67.7208 23.6872 67.8884 24.2508C68.2028 25.3056 67.4539 26.1535 67.0066 27.0277Z" fill="#333333"/>
<path d="M39.2654 15.4159C39.6787 15.5081 40.0877 15.5734 40.4947 15.6266C39.0053 15.2266 37.5129 14.8632 36.0379 14.7019C37.1275 14.8825 38.2176 15.1821 39.2654 15.4159Z" fill="#333333"/>
<path d="M64.2888 24.5989C64.3382 24.5638 64.3661 24.4963 64.3224 24.4271C60.4483 18.3026 56.7206 12.4864 51.6682 7.52698C51.6643 7.52314 51.6586 7.52918 51.6624 7.53357C53.9218 10.1156 56.2968 12.5463 58.3166 15.3901C60.3926 18.313 62.2162 21.4922 64.117 24.5643C64.1472 24.6126 64.1894 24.6208 64.2307 24.6154C64.2216 24.6225 64.2106 24.6247 64.2034 24.6373C62.5997 27.5037 60.924 30.3173 59.3189 33.1809C59.2968 33.2205 59.3501 33.2698 59.377 33.232C61.247 30.6208 62.9054 27.6765 64.3521 24.7366C64.3867 24.6669 64.3416 24.6099 64.2888 24.5989Z" fill="#333333"/>
<path d="M22.1487 41.7602C21.9653 41.6559 21.7772 41.5434 21.578 41.4869C21.4825 41.46 21.3994 41.601 21.4781 41.6828C21.6418 41.8529 21.8396 41.977 22.0311 42.101C22.2135 42.2184 22.3752 42.3474 22.5864 42.3699C22.7002 42.382 22.7285 42.219 22.6705 42.1372C22.5389 41.9523 22.3321 41.8644 22.1487 41.7602Z" fill="#333333"/>
<path d="M22.5634 40.8425C22.6517 40.8688 22.7329 40.7558 22.6839 40.663C22.5615 40.4314 22.3148 40.3107 22.1194 40.1697C22.0181 40.0967 21.8981 40.269 21.9898 40.3612C22.1636 40.5363 22.3335 40.7733 22.5634 40.8425Z" fill="#333333"/>
<path d="M22.1899 37.389C22.3113 37.389 22.3118 37.1727 22.1899 37.1727C22.068 37.1727 22.068 37.389 22.1899 37.389Z" fill="#333333"/>
<path d="M37.9113 34.2883C37.932 34.0512 37.8777 33.8174 37.872 33.5815C37.8657 33.3197 37.9152 33.0722 37.9996 32.8307C38.0702 32.6298 37.7726 32.485 37.692 32.6825C37.4928 33.1699 37.3344 33.953 37.7217 34.3783C37.7961 34.459 37.9022 34.3948 37.9113 34.2883Z" fill="#333333"/>
<path d="M39.1671 33.2693C39.3015 33.0761 39.3485 32.9033 39.4018 32.6645C39.4474 32.4593 39.1743 32.3731 39.1248 32.5773C39.0667 32.8149 39.0317 32.9927 39.0643 33.238C39.0711 33.288 39.1397 33.3083 39.1671 33.2693Z" fill="#333333"/>
<path d="M48.0442 27.6539C48.3048 27.7681 48.588 27.952 48.8688 27.9613C49.0186 27.9662 49.0435 27.75 48.9394 27.6638C48.7147 27.4783 48.385 27.4279 48.1205 27.3368C47.9405 27.2747 47.8747 27.5799 48.0442 27.6539Z" fill="#333333"/>
<path d="M48.8438 25.5109C48.9355 25.5416 49.0276 25.3896 48.9436 25.315C48.8548 25.2365 48.7708 25.1838 48.6691 25.1278C48.5328 25.0527 48.4123 25.2793 48.5491 25.3627C48.6484 25.4237 48.7363 25.4752 48.8438 25.5109Z" fill="#333333"/>
<path d="M54.5424 15.7176C54.5938 15.8345 54.6389 15.9311 54.7099 16.0327C54.7853 16.1402 54.9288 16.0228 54.9019 15.9048C54.8736 15.7791 54.8275 15.6776 54.7762 15.5612C54.6979 15.3829 54.4642 15.5398 54.5424 15.7176Z" fill="#333333"/>
<path d="M61.525 31.8402C61.3613 31.7688 61.2423 32.0866 61.4045 32.1662C61.6436 32.2836 61.8759 32.4181 62.1389 32.4378C62.2282 32.4444 62.2839 32.2973 62.2143 32.2293C62.0136 32.035 61.7679 31.9461 61.525 31.8402Z" fill="#333333"/>
<path d="M63.4123 29.6631C63.3029 29.5144 63.0965 29.7503 63.2266 29.8755C63.3283 29.9737 63.4253 30.0747 63.5386 30.1548C63.6115 30.2064 63.7018 30.1032 63.6567 30.0198C63.5866 29.8903 63.4978 29.7794 63.4123 29.6631Z" fill="#333333"/>
<path d="M6.05805 25.8319C5.96829 26.2479 5.86317 26.6408 5.87421 27.0716C5.87565 27.1238 5.94381 27.1529 5.96589 27.1002C6.12861 26.7138 6.17421 26.3093 6.23997 25.8895C6.26109 25.7545 6.08781 25.6947 6.05805 25.8319Z" fill="#333333"/>
<path d="M4.73672 25.4122C4.742 25.7157 4.75448 26.012 4.78328 26.3139C4.78904 26.3742 4.86008 26.3742 4.86536 26.3139C4.8932 26.012 4.90472 25.7157 4.90904 25.4122C4.91096 25.2854 4.73432 25.2849 4.73672 25.4122Z" fill="#333333"/>
</svg>
