<svg width="20" height="24" viewBox="0 0 20 24" fill="none" xmlns="http://www.w3.org/2000/svg">
<path d="M13.4331 12.7875C12.7278 12.8104 12.1691 13.5805 11.6214 14.0389C11.0107 14.5497 10.2768 14.9923 9.77164 15.6409C9.50792 15.9794 9.75694 16.6196 10.1857 16.4543C10.9477 16.1607 11.6067 15.5159 12.2524 14.9811C12.7839 14.5408 13.6098 14.0835 13.7906 13.3241C13.8523 13.0646 13.6755 12.7796 13.4331 12.7875Z" fill="#FBB03B"/>
<path d="M14.2727 14.6002C13.5931 14.7333 12.943 15.4474 12.3821 15.8925C11.8262 16.3336 11.1885 16.7383 10.7902 17.3723C10.5809 17.7054 10.9263 18.1452 11.2413 18.0431C11.9311 17.82 12.5336 17.2022 13.1227 16.7477C13.6762 16.3209 14.3834 15.9562 14.7446 15.3017C14.9565 14.9185 14.6079 14.5345 14.2727 14.6002Z" fill="#FBB03B"/>
<path d="M19.9344 16.0848C19.4559 15.5408 19.0084 14.9852 18.5895 14.3801C18.5817 14.3686 18.5717 14.3641 18.563 14.3554C18.6383 14.2553 18.7129 14.1563 18.7886 14.0559C18.8701 13.9479 18.9133 13.7722 18.8352 13.6431C16.1082 9.14411 13.3455 4.69247 10.7078 0.122663C10.631 -0.0105222 10.4682 -0.0469374 10.3642 0.071987C7.33431 3.53633 3.7806 5.86745 0.29839 8.62945C0.215088 8.69541 0.175219 8.78428 0.164973 8.8752C-0.0112094 9.04836 -0.0842638 9.34885 0.139361 9.63789C1.80028 11.7836 3.09459 14.3289 4.52097 16.6809C5.84111 18.8582 7.32007 20.954 8.46892 23.2579C8.58965 23.4998 8.80124 23.5042 8.95938 23.397C8.99835 23.4543 9.05649 23.4907 9.12331 23.4774C9.16519 23.5457 9.24982 23.5859 9.33045 23.5459C11.1593 22.6368 12.863 21.131 14.5609 19.9306C16.2971 18.7029 18.0614 17.5434 19.8878 16.4991C20.0217 16.4219 20.0339 16.1981 19.9344 16.0848ZM4.62789 16.1696C3.28169 13.9311 1.83369 11.6316 0.935629 9.1077C0.924269 9.07586 0.910243 9.05065 0.897102 9.02341C3.31576 7.3302 5.65068 5.3426 7.84883 3.3023C8.46647 2.72907 9.08545 1.88616 9.76256 1.42472C9.98373 0.928395 10.3034 0.792155 10.7217 1.016C10.9956 1.43338 11.262 1.85687 11.5208 2.28673C12.5089 3.87884 13.4626 5.50075 14.4119 7.12316C15.3605 8.74456 16.261 10.3993 17.1872 12.0367C17.7827 13.0898 18.2111 13.5469 17.8088 14.7532C17.5431 15.5502 16.794 16.2694 16.2797 16.8862C15.0476 18.3637 13.6559 19.5794 12.2037 20.7065C11.5997 21.1173 11.0079 21.5497 10.4519 22.0177C10.0203 22.3315 9.58726 22.6439 9.1536 22.9572C9.14046 22.8859 9.10929 22.8135 9.04937 22.745C7.34457 20.7951 5.99035 18.4355 4.62789 16.1696ZM18.5233 16.7441C17.4373 17.5177 16.2463 18.1378 15.1247 18.845C14.8465 19.0204 14.5616 19.1974 14.2742 19.3759C15.8071 17.9764 17.0319 16.3878 18.2897 14.7185C18.8931 15.6462 19.6074 15.972 18.5233 16.7441Z" fill="#333333"/>
<path d="M10.8989 6.94346C9.5503 5.35721 7.33411 5.55711 5.97766 6.99414C5.93022 7.04456 5.93356 7.10644 5.96006 7.15432C4.77913 8.31453 4.84061 10.7243 5.74535 12.084C6.95568 13.9027 9.32623 14.1383 10.7985 12.6017C12.2166 11.1221 12.2302 8.50934 10.8989 6.94346ZM11.3442 11.3106C11.1992 10.7934 10.9809 10.2117 10.7021 9.63696C10.9693 9.25345 11.209 8.8432 11.4246 8.41181C11.7304 9.34793 11.7148 10.4121 11.3442 11.3106ZM11.391 8.30791C11.164 8.73853 10.9172 9.14675 10.6499 9.53077C10.1791 8.58676 9.54607 7.6756 8.80548 7.11357C9.21019 6.88668 9.64229 6.70638 10.0984 6.57829C10.3234 6.72777 10.5363 6.91163 10.7286 7.13828C11.0163 7.47748 11.2377 7.87754 11.391 8.30791ZM6.1848 7.27655C6.27323 7.14591 6.36544 7.01757 6.465 6.89584C6.5581 6.81817 6.65499 6.74789 6.75388 6.68117C7.41896 6.53601 8.02769 6.71453 8.5725 7.09244C7.66775 7.63842 6.90267 8.47089 6.36633 9.46761C6.15607 8.76451 6.08078 8.02091 6.1848 7.27655ZM8.69188 7.17724C9.44851 7.75174 10.0755 8.70365 10.553 9.6772C9.82427 10.69 8.9487 11.5224 7.94261 12.1601C7.54325 11.7185 7.20715 11.2446 7.0323 10.9574C6.77282 10.5313 6.55943 10.0701 6.40419 9.58883C6.96125 8.559 7.74504 7.73595 8.69188 7.17724ZM9.99866 6.51182C9.5405 6.61801 9.1006 6.7922 8.68787 7.02724C8.13772 6.64373 7.53145 6.45783 6.89064 6.59382C7.85575 6.00633 9.03668 5.92942 9.99866 6.51182ZM6.10951 7.39064C6.00416 8.13169 6.09059 8.87427 6.30975 9.57508C6.01731 10.1422 5.79947 10.7592 5.67229 11.4071C5.0649 10.0931 5.34465 8.58676 6.10951 7.39064ZM5.70147 11.472C5.84892 10.8288 6.06719 10.2331 6.34762 9.69248C6.54162 10.2695 6.82293 10.8163 7.16015 11.3067C7.31473 11.5316 7.57109 11.8677 7.87446 12.2016C7.52721 12.4173 7.16683 12.6126 6.78841 12.7797C6.55966 12.6154 6.34339 12.4181 6.14916 12.1782C5.96585 11.952 5.81974 11.7152 5.70147 11.472ZM6.81959 12.8021C7.19757 12.645 7.56241 12.4575 7.91566 12.2467C8.30054 12.6638 8.75558 13.0662 9.18034 13.235C8.38273 13.441 7.53523 13.3025 6.81959 12.8021ZM9.33158 13.194C8.88811 13.0718 8.40456 12.663 7.98493 12.2067C8.98768 11.5955 9.88039 10.7783 10.6036 9.77982C10.884 10.365 11.1092 10.9523 11.2765 11.4664C11.1399 11.757 10.9664 12.0287 10.7502 12.2676C10.3397 12.7208 9.84921 13.0303 9.33158 13.194Z" fill="#333333"/>
</svg>
