<svg width="27" height="42" viewBox="0 0 27 42" fill="none" xmlns="http://www.w3.org/2000/svg">
<path d="M16.3144 0.891714C10.1013 -0.283804 3.97216 3.93203 1.504 10.472C0.204644 13.9146 -0.19808 18.0948 0.98416 21.6532C1.81984 24.1688 3.8157 27.3014 6.31698 27.6636C5.84658 29.2529 6.00833 31.0112 6.00017 32.6971C5.98769 35.2605 6.02897 37.8201 6.10865 40.3824C6.12737 40.9878 6.87954 41.289 7.15074 40.7051C8.11314 38.6323 9.32321 36.7335 10.4963 34.8127C11.7117 32.8222 12.8911 30.1139 14.6047 28.6668C14.6949 28.5905 14.7563 28.5115 14.8048 28.4308C17.3339 28.8978 20.1726 26.9885 22.024 25.1962C24.4048 22.8918 25.8554 19.908 26.3066 16.3754C27.2651 8.87832 22.8563 2.1298 16.3144 0.891714ZM21.6448 24.6951C20.7525 25.4667 19.8664 25.9151 18.964 26.2191C18.8378 25.8191 18.6544 25.4453 18.5421 25.0365C18.4034 24.5305 18.341 24.0185 18.3419 23.4883C18.3424 23.3237 18.1288 23.3264 18.1202 23.4883C18.0707 24.3878 18.101 25.5474 18.5368 26.3525C18.2474 26.4359 17.956 26.5078 17.6618 26.5731C17.6483 26.2965 17.608 26.0172 17.5768 25.7614C17.5202 25.2983 17.4717 24.7434 17.1847 24.39C17.1439 24.3401 17.0656 24.3653 17.0512 24.4301C16.96 24.8411 17.0824 25.2823 17.1338 25.695C17.1717 26.0046 17.1765 26.3426 17.2062 26.6691C16.2952 26.8535 15.3554 27.0056 14.3647 27.2898C14.3013 27.3079 14.2494 27.3409 14.2038 27.3809C13.9946 27.3914 13.7963 27.5308 13.7047 27.8754C13.1258 30.0492 11.357 32.2213 10.215 34.0439C9.23105 35.614 8.26626 37.211 7.19346 38.7053C7.15266 36.7028 7.12192 34.6997 7.11664 32.6971C7.11232 31.0156 7.31393 29.282 6.91121 27.6767C7.12673 27.6191 7.27265 27.3376 7.14257 27.1038C6.01025 25.0667 4.15698 23.7792 2.99826 21.6822C1.28706 18.5859 0.89104 15.0868 1.88416 11.5822C3.7024 5.16408 9.50272 1.03824 15.3131 2.13473C21.101 3.22684 25.6053 8.96942 25.6111 15.7876C25.613 19.2818 24.0635 22.6037 21.6448 24.6951Z" fill="#333333"/>
<path d="M10.2353 10.3448C8.23942 11.6586 7.65336 15.887 8.32824 18.1097C9.20088 20.9826 13.315 22.0698 15.1534 19.8795C17.0585 17.6103 18.0108 13.9191 16.171 11.258C15.1706 9.81079 11.1905 8.39215 10.2353 10.3448ZM14.0105 19.3927C12.9981 19.8718 12.3002 19.6326 11.3239 19.1634C10.0293 18.541 9.58198 17.7793 9.5503 16.173C9.53062 15.1802 9.66502 14.0667 9.94534 13.1321C9.98806 12.9905 10.1949 12.4626 10.4724 11.9275C10.6015 11.9237 10.7302 11.8523 10.8122 11.6964C11.0738 11.1998 11.4089 10.8683 11.7813 10.6587C11.825 10.6812 11.8677 10.7119 11.909 10.7575C12.0055 10.8639 12.149 10.73 12.09 10.5978C12.0799 10.5758 12.0703 10.5539 12.0602 10.5314C13.8165 9.86567 16.2454 11.6866 16.661 13.5986C17.1535 15.8591 15.8311 18.5311 14.0105 19.3927Z" fill="#333333"/>
<path d="M19.8617 21.2543C19.722 21.1654 19.5521 21.3915 19.6841 21.5172C19.9308 21.7532 20.287 22.2586 20.6311 22.2394C20.7266 22.2339 20.814 22.1291 20.7809 22.0144C20.6695 21.627 20.1535 21.4404 19.8617 21.2543Z" fill="#333333"/>
<path d="M21.5685 18.9811C21.3429 18.856 21.1096 18.8478 20.9277 18.6294C20.7664 18.4362 20.537 18.7177 20.6766 18.9164C20.8811 19.2072 21.2575 19.4635 21.5685 19.2347C21.6439 19.1798 21.6602 19.0316 21.5685 18.9811Z" fill="#333333"/>
<path d="M9.86224 28.416C9.45808 28.3561 9.3443 28.658 9.09902 28.9609C9.0323 29.0438 9.09662 29.209 9.2027 29.1645C9.54782 29.0191 9.84496 29.0136 9.952 28.551C9.96928 28.4769 9.92176 28.4247 9.86224 28.416Z" fill="#333333"/>
<path d="M9.62705 26.6911C9.38273 26.6285 9.27952 27.0445 9.52336 27.1213C9.72016 27.1834 9.93758 27.2926 10.143 27.2662C10.3134 27.2448 10.3787 27.0143 10.2304 26.8974C10.0595 26.7635 9.82721 26.7421 9.62705 26.6911Z" fill="#333333"/>
<path d="M3.21902 15.0852C3.05822 15.0501 2.98767 15.3272 3.15087 15.3689C3.41727 15.4375 3.64046 15.5232 3.91022 15.4639C3.96686 15.4513 3.96542 15.3657 3.9251 15.3338C3.7067 15.1632 3.4763 15.1412 3.21902 15.0852Z" fill="#333333"/>
<path d="M16.8804 3.78123C16.4301 3.73458 16.2429 4.49521 16.6317 4.73613C16.6989 4.77784 16.7714 4.74601 16.816 4.69003C16.8448 4.73064 16.89 4.75863 16.9351 4.76357C17.3959 4.81296 17.3258 3.82733 16.8804 3.78123Z" fill="#333333"/>
<path d="M17.9152 6.29584C17.7928 6.32657 17.7031 6.38364 17.5917 6.4506C17.4285 6.54883 17.572 6.82048 17.7352 6.73103C17.849 6.66902 17.9373 6.61907 18.0319 6.52468C18.1279 6.42974 18.0237 6.26895 17.9152 6.29584Z" fill="#333333"/>
</svg>
