

<svg width="22" height="28" viewBox="0 0 22 28" fill="none" xmlns="http://www.w3.org/2000/svg">
<path d="M18.9962 20.8594C18.9417 20.6878 18.8874 20.5169 18.8332 20.3454C18.823 20.012 18.7663 19.8468 18.5642 19.4977C17.0313 14.6621 15.5167 9.85886 13.5498 5.21431C13.4193 4.90582 13.0807 4.88222 12.8426 5.00278C12.2702 5.293 11.7564 5.62698 11.2452 6.03934C11.1513 6.1152 11.0789 6.21877 11.0362 6.33429C10.9676 6.38875 10.9241 6.47846 10.958 6.58517C12.6047 11.784 14.5636 16.942 16.5673 21.9753C16.6376 22.1513 16.8339 22.1594 16.9652 22.0943C17.5899 21.7842 18.2137 21.4716 18.8417 21.1707C18.9447 21.121 19.0411 21.001 18.9962 20.8594ZM12.9827 10.3509C12.9962 10.3867 13.0094 10.4226 13.0229 10.4585C13.0298 10.4862 13.0339 10.513 13.0441 10.5422L13.3827 11.5174C13.3849 11.5502 13.386 11.5835 13.3885 11.6159C13.2156 11.1494 13.0419 10.6836 12.8662 10.2187C12.8998 10.2725 12.9389 10.3172 12.9827 10.3509ZM16.5503 19.8719C16.5216 19.9834 16.5095 20.0923 16.5084 20.199C16.4192 19.9661 16.3427 19.7171 16.2706 19.4778C16.3598 19.6107 16.4536 19.7419 16.5503 19.8719Z" fill="#FBB03B"/>
<path d="M20.9537 18.6478C20.8144 17.9097 20.2822 17.1643 19.9956 16.4925C19.4565 15.2278 18.9788 13.9262 18.5025 12.6296C17.6243 10.2398 16.8129 7.81883 15.939 5.42715C15.6888 4.74251 15.3311 3.68801 14.5478 4.20299C14.3928 4.30497 14.3521 4.49258 14.3884 4.67232C14.3683 4.71355 14.3601 4.76455 14.3708 4.82184C14.8223 7.21636 15.9379 9.57499 16.8071 11.8105C17.8591 14.5164 18.7845 17.2767 19.7563 20.0199C19.796 20.1317 19.8819 20.2422 20.0003 20.2318C20.7954 20.1622 21.1216 19.5383 20.9537 18.6478Z" fill="#FBB03B"/>
<path d="M20.0204 14.9004C19.959 15.1972 20.2362 15.4607 20.4766 15.3005C20.6908 15.1576 20.6759 14.7062 20.4025 14.653C20.3392 14.6407 20.3089 14.6275 20.2593 14.5834C20.1467 14.4827 19.9603 14.5702 20.0041 14.7528C20.0149 14.7968 20.0303 14.8529 20.0204 14.9004Z" fill="#333333"/>
<path d="M20.4551 16.917C20.4607 16.9759 20.4395 17.0316 20.4389 17.0898C20.4384 17.1553 20.4576 17.2267 20.4706 17.2897C20.5157 17.511 20.7594 17.5862 20.9086 17.455C21.0732 17.3102 21.0369 17.059 20.8802 16.9302C20.7985 16.8629 20.7095 16.8525 20.6294 16.8031C20.5595 16.7596 20.4455 16.8119 20.4551 16.917Z" fill="#333333"/>
<path d="M21.9916 17.6393C21.8597 15.461 21.1464 13.3334 20.405 11.3428C19.9336 10.0774 19.4221 8.83115 18.924 7.57897C18.4557 6.40138 18.0752 4.88069 17.374 3.8627C16.627 2.77829 15.6538 3.22087 14.7488 3.74057C14.5506 3.7988 14.3499 3.8731 14.1461 3.96438C14.0013 4.02923 13.859 4.10414 13.7164 4.1778C13.0931 2.79183 12.6124 1.32748 11.7498 0.107085C11.6394 -0.0493598 11.4059 -0.0213446 11.2919 0.107085C9.29365 2.35145 7.20784 4.50579 5.10083 6.61701C4.07994 7.63972 3.07723 8.65834 2.11967 9.75818C1.42697 10.5536 0.605148 11.2726 0.225759 12.3025C0.20979 12.3123 0.193827 12.3224 0.177859 12.3321C0.0187243 12.4325 0.00330415 12.611 0.0635989 12.7533C0.0195479 12.8106 -0.00825702 12.8877 0.00220509 12.9743C0.303954 15.4286 1.38953 17.8558 2.24302 20.1235C3.19149 22.6433 4.27405 25.091 5.22968 27.6064C5.27896 27.7364 5.44939 27.8016 5.56227 27.761C10.1906 26.0819 14.6852 23.5193 19.0683 21.1541C20.636 20.308 22.1254 19.8522 21.9916 17.6393ZM13.3557 4.37107C12.5589 4.82026 11.7897 5.36955 11.0163 5.90278C10.7526 6.05482 10.4885 6.20717 10.2248 6.3592C11.1383 5.37615 12.0774 4.42584 13.0476 3.51614C13.1652 3.78653 13.2679 4.0714 13.3557 4.37107ZM12.9956 3.40187C11.9827 4.38744 10.9982 5.40732 10.0425 6.46434C9.30936 6.88678 8.57618 7.31046 7.84383 7.7351C7.78326 7.765 7.72434 7.79428 7.66322 7.82419C9.28953 6.07591 10.9547 4.37925 12.6382 2.70149C12.7657 2.9275 12.8857 3.1598 12.9956 3.40187ZM2.69041 10.4088C3.651 9.32064 4.57029 8.19468 5.5072 7.08068C7.36643 4.87 9.35863 2.78805 11.4673 0.890571C11.8621 1.4726 12.255 2.03101 12.5977 2.62846C10.85 4.29552 9.17609 6.06332 7.5473 7.88053C5.83592 8.71626 3.92164 9.64361 2.44676 10.9301C2.31874 11.0082 2.18989 11.085 2.06214 11.163C2.27028 10.909 2.47621 10.6515 2.69041 10.4088ZM20.4559 19.8106C18.5972 21.32 16.1565 22.2882 14.0757 23.3283C11.7159 24.5077 9.32918 25.6293 6.87637 26.5311C5.34284 27.0949 5.20214 26.2277 4.60194 24.7218C4.00671 23.2275 3.45553 21.7084 2.92636 20.1821C2.15052 17.944 1.60621 15.4692 0.637913 13.3193C0.698208 13.2837 0.759875 13.238 0.817692 13.1858C0.840819 13.1745 0.86147 13.1565 0.87386 13.126C0.874135 13.1254 0.874408 13.125 0.874683 13.1244C0.895057 13.1017 0.919835 13.0819 0.936354 13.058C0.946541 13.0432 0.951773 13.0259 0.954251 13.0079C1.50709 12.6028 2.02634 12.1382 2.55165 11.6802C4.3046 10.6056 6.03883 9.48936 7.77307 8.37347C7.81244 8.35301 7.85153 8.33193 7.89063 8.31147C9.15847 7.65043 10.4354 7.00513 11.6683 6.26162C12.9703 5.47625 14.3535 4.40664 15.8135 4.39405C16.213 4.51461 16.6124 4.63517 17.0119 4.75573C17.3178 5.06799 17.6592 6.23802 17.8478 6.65762C18.4078 7.90383 18.994 9.13492 19.5595 10.3777C20.6828 12.8455 23.1166 17.6503 20.4559 19.8106Z" fill="#333333"/>
<path d="M1.81902 12.8685C1.72321 12.9277 1.62877 13.0007 1.54838 13.0851C1.46716 13.1701 1.45807 13.3199 1.50983 13.4257C1.5459 13.4997 1.64337 13.6533 1.73367 13.6083C1.76809 13.5913 1.79341 13.5752 1.81654 13.5585C1.94429 13.545 2.05634 13.488 2.16702 13.3832C2.42554 13.1377 2.09544 12.6979 1.81902 12.8685Z" fill="#333333"/>
<path d="M3.47348 12.001C3.45228 12.0019 3.43136 12.0025 3.41043 12.0035C3.28461 12.0088 3.19761 12.0985 3.16485 12.2172C3.15934 12.2235 3.15356 12.2301 3.14805 12.2367C3.04068 12.3309 3.0649 12.5421 3.22101 12.5443C3.22927 12.5449 3.23726 12.5458 3.24552 12.5465C3.33004 12.6189 3.46054 12.6362 3.54478 12.5691C3.56268 12.555 3.58058 12.5408 3.59847 12.5263C3.78651 12.3771 3.73641 11.9899 3.47348 12.001Z" fill="#333333"/>
<path d="M4.71429 11.0253C4.61573 11.0977 4.55103 11.2724 4.6295 11.3939C4.65538 11.4338 4.74678 11.5132 4.75393 11.5579C4.76357 11.6164 4.82056 11.6271 4.85856 11.6019C4.86737 11.6079 4.87315 11.6164 4.88306 11.6218C5.02237 11.6995 5.18811 11.6784 5.2853 11.5302C5.3734 11.3957 5.37891 11.183 5.2608 11.0633C5.09616 10.8953 4.89793 10.8902 4.71429 11.0253Z" fill="#333333"/>
<path d="M6.2437 10.3116C6.19331 10.4262 6.17487 10.4444 6.17487 10.5852C6.17487 10.6305 6.20405 10.6793 6.24452 10.6893C6.27453 10.6969 6.30317 10.6994 6.3318 10.7048C6.50608 10.8228 6.75304 10.6736 6.71972 10.4208C6.68613 10.1687 6.3563 10.0557 6.2437 10.3116Z" fill="#333333"/>
<path d="M7.98016 9.17172C7.818 9.2117 7.77065 9.30141 7.71063 9.46478C7.68585 9.53214 7.72687 9.62468 7.77946 9.65805C7.92538 9.74996 8.01237 9.75688 8.16407 9.67001C8.41654 9.52552 8.23428 9.10939 7.98016 9.17172Z" fill="#333333"/>
<path d="M9.93658 8.06662C9.92694 8.05969 9.9173 8.05245 9.90766 8.04553C9.81983 7.98131 9.69099 8.00492 9.61913 8.08802C9.51341 8.21015 9.52827 8.30617 9.53488 8.46481C9.53846 8.55484 9.64088 8.61999 9.70173 8.54791C9.71191 8.54948 9.7254 8.55106 9.74495 8.55358C9.78046 8.55358 9.81571 8.5498 9.85068 8.54193C9.92639 8.51581 9.96851 8.45978 10.0101 8.38738C10.0731 8.27815 10.0261 8.1324 9.93658 8.06662Z" fill="#333333"/>
<path d="M11.535 7.0766C11.4208 7.09234 11.3145 7.15782 11.2837 7.29506L11.238 7.41939C11.1843 7.48896 11.2154 7.62778 11.3107 7.61928C11.3663 7.6111 11.418 7.62526 11.4659 7.66114C11.5477 7.69892 11.6617 7.65422 11.7198 7.58465C11.8985 7.36966 11.8349 7.03537 11.535 7.0766Z" fill="#333333"/>
<path d="M13.6137 6.26165C13.5231 6.02683 13.2327 5.99882 13.1143 6.22326C13.1049 6.24089 13.0956 6.25851 13.0862 6.27614C13.0119 6.41685 13.0749 6.65576 13.2318 6.68472C13.2486 6.68787 13.2654 6.69102 13.282 6.69385C13.4981 6.73414 13.7142 6.52229 13.6137 6.26165Z" fill="#333333"/>
<path d="M15.153 5.28579C15.1291 5.30656 15.1043 5.32545 15.0782 5.34213C15.0121 5.3884 14.9529 5.48189 14.9609 5.57506C14.9543 5.59206 14.9477 5.60938 14.9411 5.62638C14.9033 5.69657 14.9661 5.79289 15.036 5.76771C15.0366 5.76739 15.0371 5.7674 15.0377 5.76708C15.0597 5.78943 15.0842 5.80769 15.1117 5.82248C15.2846 5.97578 15.5589 5.88733 15.587 5.61756C15.6128 5.37172 15.3573 5.11959 15.153 5.28579Z" fill="#333333"/>
<path d="M16.691 6.33974C16.7785 6.24184 16.7769 6.07281 16.691 5.97459C16.6555 5.9343 16.61 5.91132 16.561 5.90345C16.5327 5.89904 16.3653 5.93525 16.4468 5.92297C16.3749 5.93399 16.3356 5.97806 16.3256 6.06116C16.3378 5.95665 16.3044 6.13513 16.3047 6.15716C16.3053 6.22389 16.3295 6.29252 16.3711 6.33974C16.4581 6.43921 16.6034 6.43732 16.691 6.33974Z" fill="#333333"/>
<path d="M17.2892 7.75496C17.4409 8.12167 17.9582 7.79178 17.7721 7.43294C17.6707 7.23746 17.5089 7.15342 17.3159 7.21386C17.1997 7.25005 17.13 7.4194 17.1994 7.54028C17.2349 7.60166 17.2611 7.68696 17.2892 7.75496Z" fill="#333333"/>
<path d="M18.3184 9.12508C18.2484 9.07818 18.1727 9.05961 18.1061 9.01838C18.0015 8.95322 17.887 9.08353 17.9442 9.20314C17.9808 9.27963 17.9963 9.36494 18.0375 9.44521C18.2091 9.77793 18.6119 9.32182 18.3184 9.12508Z" fill="#333333"/>
<path d="M19.0642 10.7746C18.8952 10.5246 18.5092 10.6521 18.5896 11.0028C18.5948 11.0254 18.6 11.0481 18.6052 11.0708C18.7115 11.5347 19.3357 11.1756 19.1028 10.8315C19.0898 10.8123 19.0769 10.7934 19.0642 10.7746Z" fill="#333333"/>
<path d="M19.4317 12.5824C19.4088 12.6085 19.3931 12.6394 19.3846 12.6747C19.3761 12.725 19.3766 12.7319 19.3821 12.7149C19.3739 12.7549 19.3615 12.8198 19.3612 12.8286C19.3601 12.906 19.378 12.9677 19.4171 13.03C19.4818 13.1327 19.6101 13.2293 19.7282 13.1742L19.7569 13.161C19.8681 13.1094 19.9867 12.9671 19.9298 12.8135C19.8733 12.6608 19.7863 12.5837 19.6613 12.5572C19.6586 12.555 19.6564 12.5519 19.6536 12.5497C19.6021 12.5308 19.5947 12.5245 19.631 12.5308C19.6049 12.4968 19.5614 12.4984 19.5289 12.5157C19.4961 12.5333 19.4576 12.5513 19.4317 12.5824Z" fill="#333333"/>
<path d="M20.0997 18.3093C19.9741 18.3418 19.916 18.3918 19.8524 18.5171C19.6581 18.9005 20.2668 19.1558 20.3202 18.6616C20.3353 18.5215 20.296 18.4488 20.22 18.3459C20.1913 18.3068 20.1401 18.299 20.0997 18.3093Z" fill="#333333"/>
<path d="M19.0812 19.8295C19.103 19.7039 18.9662 19.5856 18.8789 19.6951C18.8792 19.7087 18.8797 19.7222 18.88 19.7357C18.6763 19.7612 18.5686 20.0659 18.7699 20.2C18.9565 20.3243 19.182 20.0751 19.0686 19.8591C19.073 19.8494 19.0771 19.8396 19.0812 19.8295Z" fill="#333333"/>
<path d="M17.2122 20.4446C17.1241 20.506 17.0698 20.574 17.0095 20.6681C16.8218 20.9605 17.1957 21.387 17.452 21.173C17.5346 21.104 17.5943 21.0424 17.648 20.9416C17.8126 20.6322 17.4836 20.2564 17.2122 20.4446Z" fill="#333333"/>
<path d="M15.468 21.5196C15.4374 21.4765 15.3791 21.4674 15.3347 21.4793C15.3105 21.4859 15.2866 21.4925 15.2623 21.4991C15.1156 21.5391 15.02 21.7692 15.1131 21.9178C15.1216 21.9313 15.1302 21.9452 15.1387 21.9587C15.1883 22.038 15.272 22.0925 15.3598 22.0613C15.3716 22.0569 15.3835 22.0528 15.3953 22.0487C15.5875 21.9808 15.6238 21.7381 15.5057 21.5722C15.493 21.5549 15.4807 21.5372 15.468 21.5196Z" fill="#333333"/>
<path d="M13.6024 22.2449C13.4075 22.305 13.1823 22.587 13.3758 22.8055C13.5683 23.023 13.8155 22.7643 13.8615 22.5401C13.8973 22.3636 13.7618 22.1958 13.6024 22.2449Z" fill="#333333"/>
<path d="M12.018 22.999C11.9833 23.0188 11.9514 23.0434 11.9219 23.072C11.5679 23.377 12.0276 23.9087 12.2988 23.502C12.3242 23.4686 12.3454 23.4321 12.363 23.3928C12.4907 23.1438 12.2358 22.8545 12.018 22.999Z" fill="#333333"/>
<path d="M10.7028 23.5741C10.6617 23.5628 10.6169 23.5546 10.5745 23.5549C10.3093 23.5559 10.1373 23.894 10.2719 24.1562C10.4142 24.4338 10.7273 24.3932 10.877 24.1562C10.8677 24.1722 10.8583 24.1883 10.8487 24.2043C11.0384 24.0202 10.9327 23.6377 10.7028 23.5741Z" fill="#333333"/>
<path d="M8.7844 24.4443C8.39152 24.4443 8.39097 25.1406 8.7844 25.1406C9.17728 25.1406 9.1781 24.4443 8.7844 24.4443Z" fill="#333333"/>
<path d="M7.18477 25.0387C6.81226 25.0387 6.81171 25.6991 7.18477 25.6991C7.55727 25.6991 7.55782 25.0387 7.18477 25.0387Z" fill="#333333"/>
<path d="M6.27309 25.6123C6.25189 25.5255 6.15746 25.4735 6.08725 25.5239C5.83644 25.704 6.20068 26.0889 6.33834 25.8094C6.38349 25.7178 6.33861 25.6378 6.27309 25.6123Z" fill="#333333"/>
<path d="M16.7564 16.1369C16.7308 16.2669 16.6554 16.3531 16.6356 16.4951C16.616 16.637 16.6047 16.7799 16.5912 16.9229C16.5698 17.1504 16.4759 17.4659 16.6435 17.638C16.6639 17.6588 16.6959 17.667 16.7201 17.6494C16.9103 17.5112 16.8668 17.2074 16.8781 16.9783C16.8864 16.8124 16.8993 16.6462 16.8971 16.4803C16.8952 16.35 16.8349 16.2722 16.8288 16.1482C16.8264 16.1029 16.7658 16.0884 16.7564 16.1369Z" fill="#333333"/>
<path d="M17.6083 15.8569C17.6298 16.1094 17.6138 16.4248 17.6948 16.6612C17.7446 16.8069 17.9109 16.7783 17.9274 16.6253C17.9544 16.3738 17.8699 16.0719 17.8357 15.822C17.8159 15.6763 17.5956 15.7087 17.6083 15.8569Z" fill="#333333"/>
<path d="M18.7833 15.975C18.8018 15.8717 18.7974 15.7719 18.7963 15.6668C18.7952 15.5547 18.6449 15.5547 18.6438 15.6668C18.6427 15.7726 18.638 15.8714 18.6567 15.975C18.6694 16.0467 18.7707 16.0467 18.7833 15.975Z" fill="#333333"/>
<path d="M16.6276 11.5259C16.5258 11.4173 16.4242 11.3091 16.3223 11.2008C16.2447 11.118 16.142 11.2672 16.2331 11.3327C16.3509 11.4174 16.4685 11.5023 16.5863 11.5873C16.6188 11.6106 16.6563 11.5565 16.6276 11.5259Z" fill="#333333"/>
</svg>
